<?xml version="1.0" standalone="no"?><!DOCTYPE svg PUBLIC "-//W3C//DTD SVG 1.1//EN" "http://www.w3.org/Graphics/SVG/1.1/DTD/svg11.dtd"><svg t="1751858574778" class="icon" viewBox="0 0 1024 1024" version="1.1" xmlns="http://www.w3.org/2000/svg" p-id="1475" width="32" height="32" xmlns:xlink="http://www.w3.org/1999/xlink"><path d="M524 432c-6 0-10.5-4.5-10.5-10.5s4.5-10.5 10.5-10.5h105.5c6 0 10.5 4.5 10.5 10.5s-4.5 10.5-10.5 10.5h-105.5z" fill="#FFA726" p-id="1476"></path><path d="M374.5 422.5m-128 0a128 128 0 1 0 256 0 128 128 0 1 0-256 0Z" fill="#EF6C00" p-id="1477"></path><path d="M656.5 400.5c41 0 79 15 109.5 39 30 24 52.5 57.5 63.5 95 20.5 15.5 36.5 35 48 57.5 12 23.5 18.5 50.5 18.5 80 0 48.5-18.5 93-49 125-30 31.5-72 51-119 51H347.5c-24.5 0.5-54.5 1-75.5-5.5-28-8-51.5-25.5-68-48s-26-50.5-26-81c0-7.5 0.5-14.5 2-21.5 5.5-34 24.5-63.5 50-84 25-20.5 57-33 89-33h5.5c4-20.5 11.5-40 22.5-57 13.5-20.5 31.5-36.5 53.5-45.5 21-8.5 43.5-10 64.5-5 15.5 3.5 31 10.5 44 20.5 14.5-24 34-44.5 57-60 26.5-17.5 57.5-28 91.5-28l-1 0.5z" fill="#26A69A" p-id="1478"></path><path d="M893 704c-6 36-22.5 68.5-46.5 93-30 31.5-72 51-119 51H347c-24.5 0.5-54.5 1-75.5-5.5-28-8-51.5-25.5-68-48s-26-50.5-26-81c0-3.5 0-6.5 0.5-9.5h715.5-0.5z" fill="#229D91" p-id="1479"></path><path d="M365.5 168c0-6 4.5-10.5 10.5-10.5s10.5 4.5 10.5 10.5v105.5c0 6-4.5 10.5-10.5 10.5s-10.5-4.5-10.5-10.5V168zM189.5 249.5c-4-4-4-11 0-15s11-4 15 0l74.5 74.5c4 4 4 11 0 15s-11 4-15 0L189.5 249.5zM548 235c4-4 11-4 15 0s4 11 0 15L488.5 324.5c-4 4-11 4-15 0s-4-11 0-15l74.5-74.5zM253.5 515c4-4 11-4 15 0s4 11 0 15l-74.5 74.5c-4 4-11 4-15 0s-4-11 0-15l74.5-74.5zM122.5 432c-6 0-10.5-4.5-10.5-10.5s4.5-10.5 10.5-10.5h105.5c6 0 10.5 4.5 10.5 10.5s-4.5 10.5-10.5 10.5H122.5z" fill="#FFA726" p-id="1480"></path></svg>